<?xml version="1.0" encoding="utf-8"?>
<!-- Generator: Avocode 2.5.2 - http://avocode.com -->
<svg height="17" width="16" xmlns:xlink="http://www.w3.org/1999/xlink" xmlns="http://www.w3.org/2000/svg" viewBox="0 0 16 17">
    <path stroke-linejoin="miter" stroke-linecap="butt" stroke-width="1" stroke="#ffffff" fill="none" fill-rule="evenodd" d="M 1.25 1.98 C 1.35 0.89 2.33 0 3.43 0 L 12.57 0 C 13.68 0 14.65 0.89 14.75 1.98 L 15.91 15.02 C 16.01 16.11 15.19 17 14.09 17 L 1.91 17 C 0.81 17 -0.01 16.11 0.09 15.02 L 1.25 1.98 Z M 1.25 1.98" />
    <path stroke-linejoin="miter" stroke-linecap="butt" stroke-width="1" stroke="#ffffff" fill="none" fill-rule="evenodd" d="M 5.19 2.81 C 5.19 2.81 6.53 2.81 8.19 2.81 L 8.19 2.81 C 9.84 2.81 11.19 4.15 11.19 5.81 L 11.19 6.22 C 11.19 7.87 9.85 9.21 8.18 9.21 L 5.24 9.21" />
</svg>